<svg width="188" height="56" viewBox="0 0 188 56" fill="none" xmlns="http://www.w3.org/2000/svg">
<g clip-path="url(#clip0_545_636)">
<path d="M135.289 35.1393L140.264 40.8839H137.032L133.186 36.4565V40.8839H130.507V30.1724H133.186V34.0596L136.969 30.1724H140.137L135.289 35.1393ZM55.1429 33.0673C57.0988 33.0673 57.9911 32.1171 57.9911 30.6919C57.9911 29.2666 57.0988 28.3164 55.1429 28.3164H51.2743V33.0673H55.1429ZM55.2282 25.7679C58.5862 25.7679 60.797 27.5172 60.797 30.6919C60.797 33.8665 58.5862 35.6151 55.2282 35.6151H51.2743V40.8839H48.4698V25.7672H55.2296M67.1321 38.6372C68.7055 38.6372 70.1718 37.4932 70.1718 35.5292C70.1718 33.5653 68.7055 32.4212 67.1321 32.4212C65.5587 32.4212 64.0924 33.566 64.0924 35.5292C64.0924 37.4924 65.5594 38.6372 67.1321 38.6372ZM67.1321 29.8704C70.0232 29.8704 72.8925 31.7708 72.8925 35.5278C72.8925 39.2847 70.0232 41.1858 67.1321 41.1858C64.241 41.1858 61.3703 39.2855 61.3703 35.5278C61.3703 31.77 64.2395 29.8704 67.1306 29.8704M79.7324 38.638C78.1167 38.638 76.9265 37.454 76.9265 35.53C76.9265 33.6297 78.159 32.422 79.7324 32.422C80.6888 32.422 81.5178 32.8756 82.177 33.8909L84.473 32.5515C83.7045 30.8865 82.0502 29.8704 79.7506 29.8704C76.7531 29.8704 74.2029 32.1164 74.2029 35.5278C74.2029 38.9392 76.6257 41.1858 79.7506 41.1858C82.0036 41.1858 83.5129 40.1498 84.5757 38.3139L82.3649 37.0832C81.7275 37.9897 81.0472 38.6372 79.7295 38.6372M108.247 36.2404C108.12 37.8809 107.8 38.248 107.248 38.248C106.973 38.2535 106.698 38.2161 106.434 38.137L106.447 40.909C106.447 40.909 106.78 41.0126 107.394 41.0126C109.669 41.0126 110.519 39.5223 110.732 36.3506L110.988 32.6151H114.006V40.8617H116.684V30.1724H108.693L108.247 36.2404ZM103.307 34.1018C103.052 32.7631 102.054 31.9424 100.565 31.9424C99.1624 31.9424 98.0996 32.8926 97.7165 34.1018H103.307ZM100.65 29.8697C103.668 29.8697 105.795 32.0942 105.795 35.2251V36.1752H97.6742C97.8439 37.8166 98.9919 38.8526 100.565 38.8526C101.989 38.8526 102.585 38.2265 103.243 37.3844L105.369 38.4641C104.307 40.2993 102.839 41.185 100.522 41.185C97.589 41.185 95.1022 38.9177 95.1022 35.527C95.1022 32.1363 97.589 29.8697 100.65 29.8697ZM126.39 34.1018C126.135 32.7631 125.137 31.9424 123.648 31.9424C122.245 31.9424 121.183 32.8926 120.8 34.1018H126.39ZM123.734 29.8697C126.751 29.8697 128.878 32.0942 128.878 35.2251V36.1752H120.757C120.928 37.8166 122.076 38.8526 123.648 38.8526C125.072 38.8526 125.668 38.2265 126.327 37.3844L128.451 38.4648C127.388 40.3 125.921 41.1858 123.605 41.1858C120.671 41.1858 118.184 38.9184 118.184 35.5278C118.184 32.1371 120.671 29.8704 123.732 29.8704M85.4075 32.5478H88.5536V40.8831H91.232V32.5478H94.3781V30.1731H85.409L85.4075 32.5478ZM145.58 38.638C147.152 38.638 148.62 37.4932 148.62 35.53C148.62 33.5668 147.152 32.422 145.58 32.422C144.007 32.422 142.54 33.5668 142.54 35.53C142.54 37.4932 144.006 38.638 145.58 38.638ZM145.58 29.8704C148.47 29.8704 151.34 31.7708 151.34 35.5285C151.34 39.2862 148.47 41.1858 145.58 41.1858C142.689 41.1858 139.819 39.2855 139.819 35.5285C139.819 31.7715 142.689 29.8704 145.58 29.8704ZM161.997 30.1709L159.091 37.6723L156.183 30.1709H152.683V40.8624H155.232V34.0936L158.055 40.8624H160.134L162.956 34.0936V40.8624H165.505V30.1709H161.997Z" fill="white"/>
<path d="M39.8875 45.5H25.0276C23.9539 45.5 23.3224 44.5254 23.3224 43.6737C23.3223 43.4338 23.3687 43.1963 23.4591 42.9747C23.5494 42.7531 23.682 42.5519 23.849 42.3824L30.332 35.7964L39.8875 45.5Z" fill="#FF4F12"/>
<path d="M25.0271 45.5C23.9053 45.5 22.5024 44.5883 22.5024 42.7761V22.4801C22.5024 19.7376 22.3647 17.8077 24.2929 15.8497L31.5268 8.5L44.3551 21.5529L23.8493 42.3824C23.6822 42.5519 23.5497 42.7531 23.4593 42.9747C23.3689 43.1963 23.3225 43.4338 23.3226 43.6737C23.3219 44.5254 23.9534 45.5 25.0271 45.5Z" fill="#7700FF"/>
</g>
<defs>
<clipPath id="clip0_545_636">
<rect width="143" height="37" fill="white" transform="translate(22.5 8.5)"/>
</clipPath>
</defs>
</svg>
