<svg width="75" height="55" viewBox="0 0 75 55" fill="none" xmlns="http://www.w3.org/2000/svg">
<path d="M6.3844 40.376H16.856L32.9312 53.2614C35.4387 55.2714 39.1576 53.4861 39.1576 50.2724V3.83764C39.1576 0.669022 35.5298 -1.12953 33.0078 0.788827L15.657 13.9872H6.3844C2.85839 13.9872 0 16.8455 0 20.3716V33.9916C0 37.5176 2.85839 40.376 6.3844 40.376Z" fill="#D9D9D9"/>
<path d="M46.1508 13.8539C47.5496 12.4271 49.8402 12.4044 51.267 13.8032L59.5877 21.9608L67.9084 13.8032C69.3352 12.4044 71.6258 12.4271 73.0246 13.8539C74.4234 15.2806 74.4007 17.5712 72.9739 18.97L64.7555 27.0273L72.9739 35.0846C74.4007 36.4833 74.4234 38.7739 73.0246 40.2007C71.6258 41.6274 69.3352 41.6501 67.9084 40.2513L59.5877 32.0937L51.267 40.2513C49.8402 41.6501 47.5496 41.6274 46.1508 40.2007C44.752 38.7739 44.7747 36.4833 46.2015 35.0846L54.4199 27.0273L46.2015 18.97C44.7747 17.5712 44.752 15.2806 46.1508 13.8539Z" fill="#D9D9D9"/>
</svg>
