<svg width="75" height="55" viewBox="0 0 75 55" fill="none" xmlns="http://www.w3.org/2000/svg">
<path fill-rule="evenodd" clip-rule="evenodd" d="M16.8559 41.2656H6.3844C2.8584 41.2656 0 38.4072 0 34.8812V21.2611C0 17.7351 2.85839 14.8767 6.3844 14.8767H15.657L33.0078 1.67847C35.5297 -0.23988 39.1576 1.55867 39.1576 4.7273V51.1621C39.1576 54.3758 35.4387 56.161 32.9311 54.151L16.8559 41.2656Z" fill="#D9D9D9"/>
<path fill-rule="evenodd" clip-rule="evenodd" d="M48.9922 1.96269C46.9992 1.82055 45.2683 3.32097 45.1262 5.31397C44.9841 7.30698 46.4845 9.03786 48.4775 9.18001C51.5357 9.39812 56.2432 10.6522 60.095 13.6169C63.7973 16.4666 66.824 20.9608 66.824 28.1748C66.824 35.3826 63.8049 39.7713 60.1386 42.5061C56.3104 45.3617 51.6208 46.503 48.563 46.6484C46.5672 46.7433 45.0262 48.4381 45.1211 50.4339C45.216 52.4298 46.9109 53.9708 48.9067 53.8759C53.0846 53.6772 59.2485 52.197 64.4648 48.3059C69.8431 44.2941 74.0596 37.8111 74.0596 28.1748C74.0596 18.5446 69.8507 11.9951 64.5084 7.88309C59.3156 3.88618 53.1697 2.26063 48.9922 1.96269ZM48.9906 14.7314C46.9975 14.5901 45.2673 16.0914 45.1261 18.0844C44.9849 20.0775 46.4861 21.8077 48.4791 21.9489C49.4846 22.0202 51.109 22.4541 52.3896 23.4334C53.52 24.2979 54.4808 25.6356 54.4808 28.0273C54.4808 30.4127 53.5278 31.6943 52.4331 32.5055C51.1759 33.4372 49.5692 33.8321 48.5641 33.8795C46.5683 33.9738 45.0268 35.6682 45.1211 37.664C45.2153 39.6599 46.9097 41.2014 48.9056 41.1071C51.0218 41.0072 54.097 40.2785 56.7413 38.3188C59.5483 36.2386 61.7165 32.8609 61.7165 28.0273C61.7165 23.2001 59.556 19.8048 56.7849 17.6857C54.1639 15.6814 51.1064 14.8813 48.9906 14.7314Z" fill="#D9D9D9"/>
</svg>
